# xmcd database file
#
# Track frame offsets:
# 150
# 12941
# 24473
# 33003
# 44545
# 56574
# 71872
# 79982
# 90721
# 100953
#
# Disc length: 1493 seconds
#
# Revision: 1
# Processed by: cddbd v1.4PL0 Copyright (c) Steve Scherf et al.
# Submitted via: CD-Runner 2003.04
#
DISCID=7d05d30a
DTITLE=Big Joe Williams - Sugar Mama
DYEAR=1997
DGENRE=Blues
TTITLE0=Don't want no Big Fat Woman
TTITLE1=Ride in my new car
TTITLE2=Going Away Won't be back till fall
TTITLE3=Sloppy Drunk Blues
TTITLE4=Sugar Mama
TTITLE5=Nobody Knows you (when your down and out)
TTITLE6=Baby please don't go
TTITLE7=Sinking Blues
TTITLE8=Put On Your Nitecap Baby
TTITLE9=Bye Bye Baby Blues
EXTD=Big Joe Williams\nOctober 1903-December 1982\n
EXTT0=
EXTT1=
EXTT2=
EXTT3=
EXTT4=
EXTT5=
EXTT6=
EXTT7=
EXTT8=
EXTT9=
PLAYORDER=
